# xmcd CD database file
#
# Track frame offsets:
#	150
#	20555
#	41126
#	61517
#	78011
#	95941
#	112415
#	129076
#	145703
#	165545
#
# Disc length: 2417 seconds
#
# Revision: 0
# Processed by: cddbd v1.5.2PL0 Copyright (c) Steve Scherf et al.
# Submitted via: CDex 1.51
#
DISCID=7e096f0a
DTITLE=Whitey Morgan and The 78's - Sonic Ranch
DYEAR=2015
DGENRE=Country
TTITLE0=Me And The Whiskey
TTITLE1=Low Down On The Backstreets
TTITLE2=Waitin' 'Round To Die
TTITLE3=Still Drunk Still Crazy Still Blue
TTITLE4=Leavin' Again
TTITLE5=Goin' Down Rocking
TTITLE6=Good Timin' Man
TTITLE7=Drunken Nights In The City
TTITLE8=Ain't Gonna Take It Anymore
TTITLE9=That's How I Got To Memphis
EXTD=YEAR: 2015
EXTT0=
EXTT1=
EXTT2=
EXTT3=
EXTT4=
EXTT5=
EXTT6=
EXTT7=
EXTT8=
EXTT9=
PLAYORDER=
